<?xml version="1.0" encoding="UTF-8" standalone="no"?>
<!-- Created with Inkscape (http://www.inkscape.org/) -->

<svg
   xmlns:dc="http://purl.org/dc/elements/1.1/"
   xmlns:cc="http://creativecommons.org/ns#"
   xmlns:rdf="http://www.w3.org/1999/02/22-rdf-syntax-ns#"
   xmlns:svg="http://www.w3.org/2000/svg"
   xmlns="http://www.w3.org/2000/svg"
   xmlns:sodipodi="http://sodipodi.sourceforge.net/DTD/sodipodi-0.dtd"
   xmlns:inkscape="http://www.inkscape.org/namespaces/inkscape"
   width="210mm"
   height="297mm"
   viewBox="0 0 210 297"
   version="1.1"
   id="svg8"
   sodipodi:docname="drawing.svg"
   inkscape:version="0.92.1 r15371">
  <defs
     id="defs2" />
  <sodipodi:namedview
     id="base"
     pagecolor="#ffffff"
     bordercolor="#666666"
     borderopacity="1.0"
     inkscape:pageopacity="0.0"
     inkscape:pageshadow="2"
     inkscape:zoom="1"
     inkscape:cx="-1897.2142"
     inkscape:cy="1332.3626"
     inkscape:document-units="mm"
     inkscape:current-layer="layer1"
     showgrid="false"
     inkscape:snap-global="true"
     inkscape:window-width="1920"
     inkscape:window-height="1051"
     inkscape:window-x="-9"
     inkscape:window-y="-9"
     inkscape:window-maximized="1"
     showguides="false" />
  <metadata
     id="metadata5">
    <rdf:RDF>
      <cc:Work
         rdf:about="">
        <dc:format>image/svg+xml</dc:format>
        <dc:type
           rdf:resource="http://purl.org/dc/dcmitype/StillImage" />
      </cc:Work>
    </rdf:RDF>
  </metadata>
  <g
     inkscape:label="Layer 1"
     inkscape:groupmode="layer"
     id="layer1">
    <rect
       style="opacity:0;fill:#3e3013;fill-opacity:1;stroke:none;stroke-width:20;stroke-miterlimit:4;stroke-dasharray:none"
       id="rect4485"
       width="89.202377"
       height="63.5"
       x="41.577381"
       y="64.922623" />
    <rect
       style="opacity:1;fill:#caa353;fill-opacity:1;stroke:none;stroke-width:30.07907677;stroke-miterlimit:4;stroke-dasharray:none"
       id="rect4487"
       width="92.207985"
       height="75.904541"
       x="22.45064"
       y="13.15976"
       ry="2.8319724" />
    <path
       style="opacity:1;fill:#ffffff;fill-opacity:0.18579239;stroke:none;stroke-width:28.78544807;stroke-miterlimit:4;stroke-dasharray:none"
       d="m 26.233924,15.675743 5.475225,-0.594289 5.408606,0.168569 5.408606,0.16857 5.408607,0.168569 15.630752,-0.168569 15.630752,0.910276 15.630752,-1.247415 c 4.042082,1.07916 13.765216,-1.384917 17.082196,0.566397 0.28198,0.169485 0.53562,0.416241 0.74849,0.721814 0.21286,0.305574 0.38495,0.669955 0.50383,1.074679 0.44739,5.769977 -0.65246,11.651367 -0.81949,17.590953 l -0.47107,16.751015 0.47107,15.941879 0.20459,16.323312 c 0.006,0.46686 -0.0519,0.910702 -0.17419,1.314426 -0.12232,0.403724 -0.30129,0.76699 -0.51416,1.07168 -0.21287,0.304689 -0.4665,0.551013 -0.74848,0.721162 -0.28198,0.17015 -0.59231,0.263262 -0.91851,0.264128 l -34.151174,0.09057 -20.568293,-0.876562 -21.133571,0.202284 -7.704825,0.01156 c -0.326214,4.9e-4 -0.636478,-0.08577 -0.918468,-0.257971 C 25.433179,86.420577 25.179514,86.17015 24.96665,85.865461 24.753787,85.560766 24.5817,85.197708 24.462829,84.794088 24.34396,84.39047 24.321795,83.941432 24.278304,83.47935 L 23.709676,77.437809 23.568357,71.070693 24.08653,44.744913 23.878591,19.047139 c -0.0038,-0.466908 0.06981,-0.911082 0.187643,-1.314711 0.117832,-0.403629 0.28784,-0.766705 0.500703,-1.071395 0.212864,-0.30469 0.466581,-0.556093 0.748597,-0.728784 0.282016,-0.17269 0.593188,-0.221208 0.91839,-0.256506 z"
       id="rect4489"
       inkscape:connector-curvature="0"
       sodipodi:nodetypes="sccccccccsccccssssscccssssscccsssss" />
    <rect
       ry="1.984375"
       y="100.13362"
       x="22.261652"
       height="53.186634"
       width="92.207985"
       id="rect4492"
       style="opacity:1;fill:#55d14c;fill-opacity:1;stroke:none;stroke-width:25.17861748;stroke-miterlimit:4;stroke-dasharray:none" />
    <path
       sodipodi:nodetypes="sccccccccsccccssssscccssssscccsssss"
       inkscape:connector-curvature="0"
       id="path4494"
       d="m 32.207287,105.77716 4.707108,-0.35148 4.649834,0.0997 4.649836,0.0997 4.649835,0.0997 13.437921,-0.0997 13.437921,0.53837 13.437921,-0.73777 c 3.47502,0.63825 11.834107,-0.8191 14.685737,0.33499 0.24243,0.10024 0.46049,0.24618 0.64349,0.42691 0.183,0.18072 0.33095,0.39624 0.43315,0.63561 0.38463,3.41259 -0.56093,6.89107 -0.70453,10.40398 l -0.40498,9.90721 0.40498,9.42866 0.17589,9.65426 c 0.005,0.27611 -0.0446,0.53862 -0.14975,0.7774 -0.10516,0.23877 -0.25903,0.45362 -0.44203,0.63383 -0.183,0.18021 -0.40105,0.32589 -0.64347,0.42652 -0.24243,0.10064 -0.50922,0.15571 -0.78966,0.15622 l -29.36012,0.0536 -17.682776,-0.51843 -18.168752,0.11963 -6.623918,0.007 c -0.28045,2.8e-4 -0.547187,-0.0507 -0.789617,-0.15258 -0.242429,-0.10185 -0.460508,-0.24996 -0.643509,-0.43016 -0.183,-0.18021 -0.330946,-0.39493 -0.43314,-0.63365 -0.102194,-0.23872 -0.121249,-0.5043 -0.158638,-0.77759 l -0.488856,-3.57321 -0.121494,-3.76576 0.445479,-15.57011 -0.178767,-15.19868 c -0.0033,-0.27615 0.06002,-0.53885 0.161319,-0.77757 0.101301,-0.23872 0.247459,-0.45346 0.430459,-0.63367 0.183002,-0.1802 0.401125,-0.3289 0.643577,-0.43103 0.242452,-0.10214 0.50997,-0.13083 0.78955,-0.15171 z"
       style="opacity:1;fill:#ffffff;fill-opacity:0.18579239;stroke:none;stroke-width:20.52599716;stroke-miterlimit:4;stroke-dasharray:none" />
    <rect
       style="opacity:1;fill:#d17b4c;fill-opacity:1;stroke:none;stroke-width:25.17861748;stroke-miterlimit:4;stroke-dasharray:none"
       id="rect4496"
       width="92.207985"
       height="53.186634"
       x="126.2295"
       y="100.40089"
       ry="1.984375" />
    <path
       style="opacity:1;fill:#ffffff;fill-opacity:0.18579239;stroke:none;stroke-width:21.63042641;stroke-miterlimit:4;stroke-dasharray:none"
       d="m 133.8643,105.12048 5.00704,-0.36694 4.94612,0.10408 4.94611,0.10409 4.94612,0.10408 14.29416,-0.10408 14.29417,0.56205 14.29416,-0.77022 c 3.69645,0.66633 12.58816,-0.85513 15.6215,0.34972 0.25787,0.10466 0.48982,0.25701 0.68449,0.44569 0.19466,0.18868 0.35203,0.41367 0.46074,0.66357 0.40914,3.5627 -0.59666,7.19419 -0.74941,10.86161 l -0.43079,10.343 0.43079,9.8434 0.18709,10.07891 c 0.005,0.28827 -0.0474,0.56232 -0.15929,0.8116 -0.11186,0.24928 -0.27553,0.47358 -0.47019,0.66171 -0.19467,0.18813 -0.42661,0.34023 -0.68448,0.44528 -0.25787,0.10507 -0.54166,0.16256 -0.83997,0.16309 l -31.2309,0.056 -18.8095,-0.54124 -19.32643,0.1249 -7.04599,0.007 c -0.29832,3e-4 -0.58205,-0.053 -0.83993,-0.15928 -0.25788,-0.10633 -0.48985,-0.26096 -0.68451,-0.44909 -0.19467,-0.18814 -0.35204,-0.4123 -0.46074,-0.66152 -0.1087,-0.24922 -0.12898,-0.52648 -0.16875,-0.81179 l -0.52001,-3.73039 -0.12923,-3.9314 0.47387,-16.25499 -0.19016,-15.86722 c -0.004,-0.28829 0.0638,-0.56255 0.17159,-0.81177 0.10777,-0.24922 0.26323,-0.4734 0.4579,-0.66153 0.19466,-0.18814 0.42668,-0.34337 0.68457,-0.44999 0.25791,-0.10664 0.54247,-0.13659 0.83986,-0.15839 z"
       id="path4498"
       inkscape:connector-curvature="0"
       sodipodi:nodetypes="sccccccccsccccssssscccssssscccsssss" />
    <rect
       style="opacity:1;fill:#a4a4a4;fill-opacity:1;stroke:none;stroke-width:25.17861748;stroke-miterlimit:4;stroke-dasharray:none"
       id="rect4516"
       width="92.207985"
       height="53.186634"
       x="126.49677"
       y="35.721664"
       ry="1.984375" />
    <path
       style="opacity:1;fill:#ffffff;fill-opacity:0.18579239;stroke:none;stroke-width:21.43961906;stroke-miterlimit:4;stroke-dasharray:none"
       d="m 134.48709,40.626047 4.96089,-0.363854 4.90053,0.103209 4.90054,0.10321 4.90053,0.1032 14.16244,-0.1032 14.16243,0.557314 14.16243,-0.763733 c 3.66239,0.660716 12.47215,-0.84792 15.47754,0.346781 0.25549,0.103768 0.48531,0.254842 0.67818,0.441933 0.19287,0.187082 0.34879,0.410181 0.4565,0.657973 0.40537,3.532681 -0.59117,7.133569 -0.74251,10.770089 l -0.42681,10.255843 0.42681,9.760444 0.18537,9.993984 c 0.005,0.285835 -0.047,0.557577 -0.15782,0.804756 -0.11083,0.24718 -0.27299,0.469589 -0.46586,0.656138 -0.19287,0.186549 -0.42268,0.337361 -0.67817,0.441532 -0.25549,0.104179 -0.53667,0.161183 -0.83223,0.161716 l -30.94309,0.05548 -18.63615,-0.536676 -19.14833,0.123848 -6.98106,0.007 c -0.29557,2.97e-4 -0.57669,-0.05251 -0.83219,-0.157942 -0.2555,-0.105437 -0.48533,-0.258757 -0.6782,-0.445306 -0.19287,-0.186549 -0.34879,-0.408827 -0.45649,-0.655946 -0.10771,-0.247118 -0.12779,-0.52204 -0.1672,-0.804948 l -0.51521,-3.698951 -0.12804,-3.898274 0.4695,-16.118013 -0.18841,-15.733511 c -0.004,-0.285862 0.0632,-0.557813 0.17001,-0.804931 0.10676,-0.247119 0.26081,-0.469414 0.45368,-0.655963 0.19286,-0.186549 0.42275,-0.340472 0.67826,-0.446198 0.25553,-0.105734 0.53747,-0.135433 0.83213,-0.15705 z"
       id="path4518"
       inkscape:connector-curvature="0"
       sodipodi:nodetypes="sccccccccsccccssssscccssssscccsssss" />
    <path
       style="fill:#3abf31;fill-opacity:1;stroke:none;stroke-width:0.45445293px;stroke-linecap:butt;stroke-linejoin:miter;stroke-opacity:1"
       d="m 48.301436,106.95238 c 2.202553,-0.13364 4.405107,-0.26727 6.60766,-0.40091 3.59683,5.90394 7.193659,11.80787 10.790489,17.71181 2.305027,4.03305 6.915081,12.09914 6.915081,12.09914 l 4.523851,-5.61647 5.459293,-4.54739 6.060653,0.53454 c -2.883073,3.41104 -5.766145,6.82207 -8.649218,10.23311 -1.457635,3.05468 -2.915271,6.10935 -4.372906,9.16403 -2.448356,0.30604 -4.896713,0.61209 -7.345069,0.91813 -3.220277,-7.03902 -6.440553,-14.07805 -9.66083,-21.11707 -3.443001,-6.32631 -6.886003,-12.65261 -10.329004,-18.97892 z"
       id="path4522"
       inkscape:connector-curvature="0"
       sodipodi:nodetypes="cccccccccccc" />
    <circle
       style="opacity:1;fill:#d1624c;fill-opacity:1;stroke:none;stroke-width:21.77570152;stroke-miterlimit:4;stroke-dasharray:none"
       id="path4524"
       cx="173.20758"
       cy="127.57217"
       r="22.017115" />
    <circle
       r="16.725449"
       cy="127.1942"
       cx="173.20758"
       id="circle4526"
       style="opacity:1;fill:#d9936d;fill-opacity:1;stroke:none;stroke-width:16.54205704;stroke-miterlimit:4;stroke-dasharray:none" />
    <rect
       style="opacity:1;fill:#d1624c;fill-opacity:1;stroke:none;stroke-width:18.49282837;stroke-miterlimit:4;stroke-dasharray:none"
       id="rect4528"
       width="42.333328"
       height="6.2366071"
       x="33.161572"
       y="204.94717"
       ry="2.3623507"
       transform="rotate(-38.978558)" />
    <circle
       r="22.017115"
       cy="62.749249"
       cx="173.39658"
       id="circle4530"
       style="opacity:1;fill:#868686;fill-opacity:1;stroke:none;stroke-width:21.77570152;stroke-miterlimit:4;stroke-dasharray:none" />
    <circle
       style="opacity:1;fill:#b5b5b5;fill-opacity:1;stroke:none;stroke-width:16.54205704;stroke-miterlimit:4;stroke-dasharray:none"
       id="circle4532"
       cx="173.39658"
       cy="62.371281"
       r="16.725449" />
    <rect
       transform="matrix(0.99999363,0.00357051,-9.5764483e-4,0.99999954,0,0)"
       ry="2.3623478"
       y="59.011993"
       x="162.40067"
       height="6.2365994"
       width="21.924034"
       id="rect4534"
       style="opacity:1;fill:#868686;fill-opacity:1;stroke:none;stroke-width:13.30828476;stroke-miterlimit:4;stroke-dasharray:none" />
    <rect
       style="opacity:1;fill:#55d14c;fill-opacity:1;stroke:none;stroke-width:6.30103922;stroke-miterlimit:4;stroke-dasharray:none"
       id="rect4536"
       width="23.075378"
       height="13.310146"
       x="81.7929"
       y="70.273499"
       ry="0.49659696" />
    <path
       style="opacity:1;fill:#ffffff;fill-opacity:0.18579239;stroke:none;stroke-width:5.13670444;stroke-miterlimit:4;stroke-dasharray:none"
       d="m 84.281833,71.685818 1.177971,-0.08796 1.163637,0.02495 1.163638,0.02495 1.163638,0.02495 3.362888,-0.02495 3.362888,0.134729 3.362888,-0.18463 c 0.869635,0.159725 2.961529,-0.204982 3.675159,0.08383 0.0607,0.02508 0.11524,0.06161 0.16104,0.106836 0.0458,0.04523 0.0828,0.09916 0.10839,0.159063 0.0962,0.854013 -0.14037,1.724515 -0.17631,2.603634 l -0.10135,2.479314 0.10135,2.359556 0.044,2.416014 c 0.001,0.0691 -0.0112,0.134791 -0.0375,0.194547 -0.0263,0.05975 -0.0648,0.11352 -0.11062,0.158618 -0.0458,0.0451 -0.10036,0.08155 -0.16103,0.106738 -0.0607,0.02519 -0.12743,0.03897 -0.19761,0.0391 l -7.347479,0.01341 -4.425178,-0.129739 -4.546795,0.02994 -1.65766,0.0018 c -0.07018,7e-5 -0.136935,-0.01269 -0.197604,-0.03818 -0.06067,-0.02549 -0.115244,-0.06255 -0.161041,-0.107649 -0.0458,-0.0451 -0.08282,-0.09883 -0.108394,-0.158573 -0.02557,-0.05974 -0.03034,-0.126203 -0.0397,-0.194595 l -0.122338,-0.894208 -0.0304,-0.942395 0.111482,-3.896476 -0.04474,-3.803524 c -8.26e-4,-0.06911 0.01502,-0.134849 0.04037,-0.19459 0.02535,-0.05974 0.06193,-0.11348 0.107724,-0.158578 0.0458,-0.0451 0.100383,-0.08231 0.161057,-0.107867 0.06067,-0.02556 0.127622,-0.03274 0.197588,-0.03797 z"
       id="path4538"
       inkscape:connector-curvature="0"
       sodipodi:nodetypes="sccccccccsccccssssscccssssscccsssss" />
    <path
       sodipodi:nodetypes="cccccccccccc"
       inkscape:connector-curvature="0"
       id="path4540"
       d="m 88.309452,71.979921 c 0.551196,-0.03344 1.102393,-0.06689 1.65359,-0.10033 0.90012,1.477483 1.800239,2.954962 2.700359,4.432444 0.576841,1.009286 1.730524,3.027854 1.730524,3.027854 l 1.132109,-1.405542 1.366208,-1.138001 1.5167,0.133771 c -0.721499,0.853625 -1.442998,1.707247 -2.164498,2.560872 -0.364778,0.764445 -0.729557,1.528887 -1.094335,2.293332 -0.61271,0.07659 -1.22542,0.153177 -1.83813,0.229765 -0.805886,-1.76154 -1.611771,-3.523083 -2.417657,-5.284623 -0.861624,-1.583181 -1.723247,-3.166361 -2.58487,-4.749542 z"
       style="fill:#3abf31;fill-opacity:1;stroke:none;stroke-width:0.11372848px;stroke-linecap:butt;stroke-linejoin:miter;stroke-opacity:1" />
    <rect
       ry="0.49659693"
       y="69.973808"
       x="30.9795"
       height="13.310146"
       width="23.075378"
       id="rect4542"
       style="opacity:1;fill:#d17b4c;fill-opacity:1;stroke:none;stroke-width:6.30103922;stroke-miterlimit:4;stroke-dasharray:none" />
    <path
       sodipodi:nodetypes="sccccccccsccccssssscccssssscccsssss"
       inkscape:connector-curvature="0"
       id="path4544"
       d="m 32.890134,71.154902 1.253033,-0.09183 1.237783,0.02601 1.237783,0.02608 1.237784,0.02602 3.57716,-0.02602 3.577173,0.140654 3.57716,-0.192754 c 0.925052,0.166757 3.150232,-0.213995 3.90934,0.08753 0.06453,0.0262 0.122579,0.06431 0.171295,0.111533 0.04874,0.04725 0.08809,0.103524 0.115303,0.166062 0.102387,0.891578 -0.149316,1.800374 -0.187545,2.718155 l -0.107808,2.588372 0.107808,2.463348 0.04681,2.522283 c 0.0013,0.07215 -0.01186,0.140723 -0.03986,0.203106 -0.028,0.06238 -0.06896,0.118518 -0.117668,0.165595 -0.04874,0.04706 -0.106766,0.08515 -0.171296,0.111434 -0.06453,0.02627 -0.13555,0.04067 -0.210208,0.0408 l -7.815642,0.01404 -4.707142,-0.135444 -4.836508,0.03123 -1.763288,0.0019 c -0.07466,7.4e-5 -0.145658,-0.01329 -0.210195,-0.03986 -0.06454,-0.02663 -0.122586,-0.06531 -0.171302,-0.112384 -0.04874,-0.04706 -0.0881,-0.103183 -0.115303,-0.165547 -0.02719,-0.06237 -0.03228,-0.131756 -0.04222,-0.203154 l -0.130136,-0.933546 -0.03234,-0.983844 0.118586,-4.06787 -0.04762,-3.970827 c -0.0013,-0.07214 0.01596,-0.140785 0.04297,-0.203154 0.02695,-0.06237 0.06588,-0.118469 0.114594,-0.165547 0.04874,-0.04706 0.106777,-0.08593 0.171314,-0.112613 0.06454,-0.0267 0.135755,-0.03415 0.210177,-0.03961 z"
       style="opacity:1;fill:#ffffff;fill-opacity:0.18579239;stroke:none;stroke-width:5.41309166;stroke-miterlimit:4;stroke-dasharray:none" />
    <circle
       r="5.5098619"
       cy="76.773514"
       cx="42.735928"
       id="circle4546"
       style="opacity:1;fill:#d1624c;fill-opacity:1;stroke:none;stroke-width:5.44944763;stroke-miterlimit:4;stroke-dasharray:none" />
    <circle
       style="opacity:1;fill:#d9936d;fill-opacity:1;stroke:none;stroke-width:4.13970947;stroke-miterlimit:4;stroke-dasharray:none"
       id="circle4548"
       cx="42.735928"
       cy="76.678925"
       r="4.1856036" />
    <rect
       transform="rotate(-38.978558)"
       ry="0.5911867"
       y="85.769226"
       x="-20.386106"
       height="1.5607333"
       width="10.594067"
       id="rect4550"
       style="opacity:1;fill:#d1624c;fill-opacity:1;stroke:none;stroke-width:4.62789679;stroke-miterlimit:4;stroke-dasharray:none" />
    <path
       sodipodi:nodetypes="sccccccccsccccssssscccssssscccsssss"
       inkscape:connector-curvature="0"
       id="path4552"
       d="m 30.623679,20.121994 4.948021,-0.386244 4.887817,0.109553 4.887818,0.109552 4.887818,0.109553 14.125683,-0.109553 14.125683,0.591609 14.125684,-0.810724 c 3.652875,0.701372 12.439777,-0.900087 15.437357,0.368115 0.25484,0.110149 0.48406,0.270525 0.67643,0.469124 0.19237,0.198598 0.34789,0.435417 0.45531,0.698457 0.40432,3.750039 -0.58963,7.572489 -0.74058,11.43276 l -0.4257,10.886865 0.4257,10.360989 0.1849,10.60889 c 0.005,0.303424 -0.0468,0.591886 -0.15742,0.854275 -0.11054,0.262389 -0.27228,0.498484 -0.46465,0.696511 -0.19238,0.198024 -0.42159,0.358114 -0.67641,0.468699 -0.25484,0.110587 -0.53528,0.171103 -0.83007,0.171664 l -30.862795,0.05887 -18.587793,-0.569699 -19.098643,0.131474 -6.962936,0.0075 c -0.294801,3.18e-4 -0.575192,-0.05576 -0.83003,-0.167663 -0.254837,-0.111922 -0.484076,-0.274678 -0.676444,-0.4727 -0.192367,-0.198027 -0.347884,-0.433985 -0.455308,-0.696307 -0.107425,-0.262321 -0.127454,-0.554161 -0.166757,-0.854478 L 28.342488,60.262593 28.214779,56.124459 28.683058,39.014738 28.495141,22.313172 c -0.0034,-0.303455 0.06309,-0.592133 0.169576,-0.85446 0.106486,-0.262329 0.260124,-0.4983 0.452489,-0.696323 0.192367,-0.198026 0.421656,-0.361418 0.676515,-0.473653 0.254862,-0.112238 0.536071,-0.143777 0.82996,-0.166716 z"
       style="opacity:1;fill:#ffffff;fill-opacity:0.79234978;stroke:none;stroke-width:22.06066895;stroke-miterlimit:4;stroke-dasharray:none" />
    <flowRoot
       xml:space="preserve"
       id="flowRoot4554"
       style="font-style:normal;font-variant:normal;font-weight:normal;font-stretch:normal;font-size:40px;line-height:1.25;font-family:'Californian FB';-inkscape-font-specification:'Californian FB';text-align:center;letter-spacing:0px;word-spacing:0px;text-anchor:middle;fill:#5f5f5f;fill-opacity:1;stroke:none"
       transform="matrix(0.26458333,0,0,0.26458333,-1.5119047,-22.242658)"><flowRegion
         id="flowRegion4556"
         style="font-style:normal;font-variant:normal;font-weight:normal;font-stretch:normal;font-family:'Californian FB';-inkscape-font-specification:'Californian FB';text-align:center;text-anchor:middle;fill:#5f5f5f;fill-opacity:1"><rect
           id="rect4558"
           width="257.14285"
           height="63.57143"
           x="142.85715"
           y="173.94826"
           style="font-style:normal;font-variant:normal;font-weight:normal;font-stretch:normal;font-family:'Californian FB';-inkscape-font-specification:'Californian FB';text-align:center;text-anchor:middle;fill:#5f5f5f;fill-opacity:1" /></flowRegion><flowPara
         id="flowPara4560">End Turn?</flowPara></flowRoot>    <rect
       ry="2.8319724"
       y="15.427618"
       x="-80.547874"
       height="75.904541"
       width="92.207985"
       id="rect4562"
       style="opacity:1;fill:#caa353;fill-opacity:1;stroke:none;stroke-width:30.07907677;stroke-miterlimit:4;stroke-dasharray:none" />
    <path
       sodipodi:nodetypes="sccccccccsccccssssscccssssscccsssss"
       inkscape:connector-curvature="0"
       id="path4564"
       d="m -76.764588,17.9436 5.475225,-0.594289 5.408606,0.168569 5.408606,0.16857 5.408607,0.168569 15.630752,-0.168569 15.630752,0.910276 15.630752,-1.247415 c 4.042082,1.07916 13.765216,-1.384917 17.082196,0.566397 0.28198,0.169485 0.53562,0.416241 0.74849,0.721814 0.21286,0.305574 0.38495,0.669955 0.50383,1.074679 0.44739,5.769977 -0.65246,11.651367 -0.81949,17.590953 l -0.47107,16.751015 0.47107,15.941879 0.20459,16.323312 c 0.006,0.46686 -0.0519,0.910702 -0.17419,1.314426 -0.12232,0.403724 -0.30129,0.76699 -0.51416,1.07168 -0.21287,0.304689 -0.4665,0.551013 -0.74848,0.721162 -0.28198,0.17015 -0.59231,0.263262 -0.91851,0.264128 l -34.151174,0.09057 -20.568293,-0.876562 -21.133571,0.202284 -7.704825,0.01156 c -0.326214,4.9e-4 -0.636478,-0.08577 -0.918468,-0.257971 -0.28199,-0.172203 -0.535655,-0.42263 -0.748519,-0.727319 -0.212863,-0.304695 -0.38495,-0.667753 -0.503821,-1.071373 -0.118869,-0.403618 -0.141034,-0.852656 -0.184525,-1.314738 l -0.568628,-6.041541 -0.141319,-6.367116 0.518173,-26.32578 -0.207939,-25.697774 c -0.0038,-0.466908 0.06981,-0.911082 0.187643,-1.314711 0.117832,-0.403629 0.28784,-0.766705 0.500703,-1.071395 0.212864,-0.30469 0.466581,-0.556093 0.748597,-0.728784 0.282016,-0.17269 0.593188,-0.221208 0.91839,-0.256506 z"
       style="opacity:1;fill:#ffffff;fill-opacity:0.18579239;stroke:none;stroke-width:28.78544807;stroke-miterlimit:4;stroke-dasharray:none" />
    <path
       style="opacity:1;fill:#ffffff;fill-opacity:0.79234978;stroke:none;stroke-width:25.65353775;stroke-miterlimit:4;stroke-dasharray:none"
       d="m -72.374833,22.574589 4.948021,-0.522298 4.887817,0.148143 4.887818,0.148141 4.887818,0.148143 14.125683,-0.148143 14.125683,0.800004 14.125684,-1.096302 c 3.652875,0.948431 12.439777,-1.217143 15.437357,0.497784 0.25484,0.148949 0.48406,0.365817 0.67643,0.634373 0.19237,0.268554 0.34789,0.588793 0.45531,0.944489 0.40432,5.070992 -0.58963,10.239902 -0.74058,15.459956 l -0.4257,14.721769 0.4257,14.010653 0.1849,14.345878 c 0.005,0.410305 -0.0468,0.800378 -0.15742,1.155194 -0.11054,0.354815 -0.27228,0.674075 -0.46465,0.941857 -0.19238,0.267778 -0.42159,0.48426 -0.67641,0.633799 -0.25484,0.149541 -0.53528,0.231374 -0.83007,0.232132 l -30.862795,0.07961 -18.587793,-0.770375 -19.098643,0.177785 -6.962936,0.01014 c -0.294801,4.3e-4 -0.575192,-0.0754 -0.83003,-0.226722 -0.254837,-0.151347 -0.484076,-0.371434 -0.676444,-0.639209 -0.192367,-0.267782 -0.347884,-0.586856 -0.455308,-0.941581 -0.107425,-0.354724 -0.127454,-0.749365 -0.166757,-1.155469 l -0.513876,-5.309602 -0.127709,-5.595794 0.468279,-23.13663 -0.187917,-22.584702 c -0.0034,-0.410347 0.06309,-0.800712 0.169576,-1.155444 0.106486,-0.354735 0.260124,-0.673827 0.452489,-0.941603 0.192367,-0.267781 0.421656,-0.488728 0.676515,-0.640498 0.254862,-0.151774 0.536071,-0.194422 0.82996,-0.225442 z"
       id="path4582"
       inkscape:connector-curvature="0"
       sodipodi:nodetypes="sccccccccsccccssssscccssssscccsssss" />
    <flowRoot
       transform="matrix(0.26458333,0,0,0.26458333,-105.64435,-16.950991)"
       style="font-style:normal;font-variant:normal;font-weight:normal;font-stretch:normal;font-size:40px;line-height:1.25;font-family:'Californian FB';-inkscape-font-specification:'Californian FB';text-align:center;letter-spacing:0px;word-spacing:0px;text-anchor:middle;fill:#5f5f5f;fill-opacity:1;stroke:none"
       id="flowRoot4590"
       xml:space="preserve"><flowRegion
         style="font-style:normal;font-variant:normal;font-weight:normal;font-stretch:normal;font-family:'Californian FB';-inkscape-font-specification:'Californian FB';text-align:center;text-anchor:middle;fill:#5f5f5f;fill-opacity:1"
         id="flowRegion4586"><rect
           style="font-style:normal;font-variant:normal;font-weight:normal;font-stretch:normal;font-family:'Californian FB';-inkscape-font-specification:'Californian FB';text-align:center;text-anchor:middle;fill:#5f5f5f;fill-opacity:1"
           y="173.94826"
           x="142.85715"
           height="213.57143"
           width="254.28571"
           id="rect4584" /></flowRegion><flowPara
         id="flowPara4588">You have 30 seconds to commit your actions </flowPara></flowRoot>    <rect
       ry="2.8319724"
       y="-48.072384"
       x="295.34946"
       height="75.904541"
       width="92.207985"
       id="rect4634"
       style="opacity:1;fill:#caa353;fill-opacity:1;stroke:none;stroke-width:30.07907677;stroke-miterlimit:4;stroke-dasharray:none" />
    <path
       sodipodi:nodetypes="sccccccccsccccssssscccssssscccsssss"
       inkscape:connector-curvature="0"
       id="path4636"
       d="m 299.13273,-45.5564 5.47523,-0.594289 5.4086,0.168569 5.40861,0.16857 5.40861,0.168569 15.63075,-0.168569 15.63075,0.910276 15.63075,-1.247415 c 4.04209,1.07916 13.76522,-1.384917 17.0822,0.566397 0.28198,0.169485 0.53562,0.416241 0.74849,0.721814 0.21286,0.305574 0.38495,0.669955 0.50383,1.074679 0.44739,5.769977 -0.65246,11.651367 -0.81949,17.590953 l -0.47107,16.7510151 0.47107,15.941879 0.20459,16.3233119 c 0.006,0.46686 -0.0519,0.910702 -0.17419,1.314426 -0.12232,0.403724 -0.30129,0.76699 -0.51416,1.07168 -0.21287,0.304689 -0.4665,0.551013 -0.74848,0.721162 -0.28198,0.17015 -0.59231,0.263262 -0.91851,0.264128 l -34.15117,0.09057 -20.5683,-0.876562 -21.13357,0.202284 -7.70482,0.01156 c -0.32622,4.9e-4 -0.63648,-0.08577 -0.91847,-0.257971 -0.28199,-0.172203 -0.53566,-0.42263 -0.74852,-0.727319 -0.21286,-0.304695 -0.38495,-0.667753 -0.50382,-1.071373 -0.11887,-0.403618 -0.14104,-0.852656 -0.18453,-1.314738 l -0.56862,-6.041541 -0.14132,-6.3671159 0.51817,-26.3257801 -0.20794,-25.697774 c -0.004,-0.466908 0.0698,-0.911082 0.18764,-1.314711 0.11784,-0.403629 0.28784,-0.766705 0.50071,-1.071395 0.21286,-0.30469 0.46658,-0.556093 0.74859,-0.728784 0.28202,-0.17269 0.59319,-0.221208 0.91839,-0.256506 z"
       style="opacity:1;fill:#ffffff;fill-opacity:0.18579239;stroke:none;stroke-width:28.78544807;stroke-miterlimit:4;stroke-dasharray:none" />
    <rect
       ry="0.49659696"
       y="9.0413561"
       x="354.69171"
       height="13.310146"
       width="23.075378"
       id="rect4638"
       style="opacity:1;fill:#55d14c;fill-opacity:1;stroke:none;stroke-width:6.30103922;stroke-miterlimit:4;stroke-dasharray:none" />
    <path
       sodipodi:nodetypes="sccccccccsccccssssscccssssscccsssss"
       inkscape:connector-curvature="0"
       id="path4640"
       d="m 357.18064,10.453675 1.17797,-0.08796 1.16364,0.02495 1.16364,0.02495 1.16364,0.02495 3.36288,-0.02495 3.36289,0.134729 3.36289,-0.18463 c 0.86964,0.159725 2.96153,-0.204982 3.67516,0.08383 0.0607,0.02508 0.11524,0.06161 0.16104,0.106836 0.0458,0.04523 0.0828,0.09916 0.10839,0.159063 0.0962,0.854013 -0.14037,1.724515 -0.17631,2.603634 l -0.10135,2.479314 0.10135,2.359556 0.044,2.416014 c 10e-4,0.0691 -0.0112,0.134791 -0.0375,0.194547 -0.0263,0.05975 -0.0648,0.11352 -0.11062,0.158618 -0.0458,0.0451 -0.10036,0.08155 -0.16103,0.106738 -0.0607,0.02519 -0.12743,0.03897 -0.19761,0.0391 l -7.34748,0.01341 -4.42518,-0.129739 -4.54679,0.02994 -1.65766,0.0018 c -0.0702,7e-5 -0.13694,-0.01269 -0.19761,-0.03818 -0.0607,-0.02549 -0.11524,-0.06255 -0.16104,-0.107649 -0.0458,-0.0451 -0.0828,-0.09883 -0.10839,-0.158573 -0.0256,-0.05974 -0.0303,-0.126203 -0.0397,-0.194595 l -0.12234,-0.894208 -0.0304,-0.942395 0.11148,-3.896476 -0.0447,-3.803524 c -8.2e-4,-0.06911 0.015,-0.134849 0.0404,-0.19459 0.0254,-0.05974 0.0619,-0.11348 0.10773,-0.158578 0.0458,-0.0451 0.10038,-0.08231 0.16105,-0.107867 0.0607,-0.02556 0.12763,-0.03274 0.19759,-0.03797 z"
       style="opacity:1;fill:#ffffff;fill-opacity:0.18579239;stroke:none;stroke-width:5.13670444;stroke-miterlimit:4;stroke-dasharray:none" />
    <path
       style="fill:#3abf31;fill-opacity:1;stroke:none;stroke-width:0.11372848px;stroke-linecap:butt;stroke-linejoin:miter;stroke-opacity:1"
       d="m 361.20826,10.747778 c 0.5512,-0.03344 1.10239,-0.06689 1.65359,-0.10033 0.90012,1.477483 1.80024,2.954962 2.70036,4.432444 0.57684,1.009286 1.73052,3.027854 1.73052,3.027854 l 1.13211,-1.405542 1.36621,-1.138001 1.5167,0.133771 c -0.7215,0.853625 -1.443,1.707247 -2.1645,2.560872 -0.36477,0.764445 -0.72955,1.528887 -1.09433,2.293332 -0.61271,0.07659 -1.22542,0.153177 -1.83813,0.229765 -0.80589,-1.76154 -1.61177,-3.523083 -2.41766,-5.284623 -0.86162,-1.583181 -1.72325,-3.166361 -2.58487,-4.749542 z"
       id="path4642"
       inkscape:connector-curvature="0"
       sodipodi:nodetypes="cccccccccccc" />
    <rect
       style="opacity:1;fill:#d17b4c;fill-opacity:1;stroke:none;stroke-width:6.30103922;stroke-miterlimit:4;stroke-dasharray:none"
       id="rect4644"
       width="23.075378"
       height="13.310146"
       x="303.8783"
       y="8.7416658"
       ry="0.49659693" />
    <path
       style="opacity:1;fill:#ffffff;fill-opacity:0.18579239;stroke:none;stroke-width:5.41309166;stroke-miterlimit:4;stroke-dasharray:none"
       d="m 305.78894,9.9227591 1.25304,-0.09183 1.23778,0.02601 1.23778,0.02608 1.23779,0.02602 3.57716,-0.02602 3.57717,0.1406539 3.57716,-0.1927539 c 0.92505,0.166757 3.15023,-0.213995 3.90934,0.08753 0.0645,0.0262 0.12258,0.06431 0.17129,0.1115329 0.0487,0.04725 0.0881,0.103524 0.11531,0.166062 0.10238,0.891578 -0.14932,1.800374 -0.18755,2.718155 l -0.10781,2.588372 0.10781,2.463348 0.0468,2.522283 c 0.001,0.07215 -0.0119,0.140723 -0.0399,0.203106 -0.028,0.06238 -0.069,0.118518 -0.11767,0.165595 -0.0487,0.04706 -0.10676,0.08515 -0.17129,0.111434 -0.0645,0.02627 -0.13555,0.04067 -0.21021,0.0408 l -7.81564,0.01404 -4.70714,-0.135444 -4.83651,0.03123 -1.76329,0.0019 c -0.0747,7.4e-5 -0.14566,-0.01329 -0.21019,-0.03986 -0.0645,-0.02663 -0.12259,-0.06531 -0.17131,-0.112384 -0.0487,-0.04706 -0.0881,-0.103183 -0.1153,-0.165547 -0.0272,-0.06237 -0.0323,-0.131756 -0.0422,-0.203154 l -0.13014,-0.933546 -0.0323,-0.983844 0.11859,-4.06787 -0.0476,-3.970827 c -0.001,-0.07214 0.016,-0.140785 0.043,-0.203154 0.0269,-0.06237 0.0659,-0.118469 0.11459,-0.165547 0.0487,-0.04706 0.10678,-0.08593 0.17132,-0.1126129 0.0645,-0.0267 0.13575,-0.03415 0.21018,-0.03961 z"
       id="path4646"
       inkscape:connector-curvature="0"
       sodipodi:nodetypes="sccccccccsccccssssscccssssscccsssss" />
    <circle
       style="opacity:1;fill:#d1624c;fill-opacity:1;stroke:none;stroke-width:5.44944763;stroke-miterlimit:4;stroke-dasharray:none"
       id="circle4648"
       cx="315.63474"
       cy="15.541371"
       r="5.5098619" />
    <circle
       r="4.1856036"
       cy="15.446782"
       cx="315.63474"
       id="circle4650"
       style="opacity:1;fill:#d9936d;fill-opacity:1;stroke:none;stroke-width:4.13970947;stroke-miterlimit:4;stroke-dasharray:none" />
    <rect
       style="opacity:1;fill:#d1624c;fill-opacity:1;stroke:none;stroke-width:4.62789679;stroke-miterlimit:4;stroke-dasharray:none"
       id="rect4652"
       width="10.594067"
       height="1.5607333"
       x="230.27718"
       y="209.8299"
       ry="0.5911867"
       transform="rotate(-38.978558)" />
    <path
       style="opacity:1;fill:#ffffff;fill-opacity:0.79234978;stroke:none;stroke-width:22.06066895;stroke-miterlimit:4;stroke-dasharray:none"
       d="m 303.52249,-41.110149 4.94802,-0.386244 4.88782,0.109553 4.88781,0.109552 4.88782,0.109553 14.12569,-0.109553 14.12568,0.591609 14.12568,-0.810724 c 3.65288,0.701372 12.43978,-0.900087 15.43736,0.368115 0.25484,0.110149 0.48406,0.270525 0.67643,0.469124 0.19237,0.198598 0.34789,0.435417 0.45531,0.698457 0.40432,3.750039 -0.58963,7.572489 -0.74058,11.43276 l -0.4257,10.886865 0.4257,10.3609891 0.1849,10.60889 c 0.005,0.303424 -0.0468,0.591886 -0.15742,0.854275 -0.11054,0.262389 -0.27228,0.498484 -0.46465,0.696511 -0.19238,0.198024 -0.42159,0.358114 -0.67641,0.468699 -0.25484,0.110587 -0.53528,0.171103 -0.83007,0.171664 l -30.8628,0.05887 -18.58779,-0.569699 -19.09864,0.131474 -6.96294,0.0075 c -0.2948,3.18e-4 -0.57519,-0.05576 -0.83003,-0.167663 -0.25483,-0.111922 -0.48407,-0.274678 -0.67644,-0.4727 -0.19237,-0.198027 -0.34789,-0.433985 -0.45531,-0.696307 -0.10742,-0.262321 -0.12745,-0.554161 -0.16676,-0.854478 l -0.51387,-3.92649299 -0.12771,-4.13813401 0.46828,-17.1097211 -0.18792,-16.701566 c -0.003,-0.303455 0.0631,-0.592133 0.16958,-0.85446 0.10648,-0.262329 0.26012,-0.4983 0.45249,-0.696323 0.19236,-0.198026 0.42165,-0.361418 0.67651,-0.473653 0.25486,-0.112238 0.53607,-0.143777 0.82996,-0.166716 z"
       id="path4654"
       inkscape:connector-curvature="0"
       sodipodi:nodetypes="sccccccccsccccssssscccssssscccsssss" />
    <flowRoot
       transform="matrix(0.26458333,0,0,0.26458333,271.3869,-83.474801)"
       style="font-style:normal;font-variant:normal;font-weight:normal;font-stretch:normal;font-size:40px;line-height:1.25;font-family:'Californian FB';-inkscape-font-specification:'Californian FB';text-align:center;letter-spacing:0px;word-spacing:0px;text-anchor:middle;fill:#5f5f5f;fill-opacity:1;stroke:none"
       id="flowRoot4662"
       xml:space="preserve"><flowRegion
         style="font-style:normal;font-variant:normal;font-weight:normal;font-stretch:normal;font-family:'Californian FB';-inkscape-font-specification:'Californian FB';text-align:center;text-anchor:middle;fill:#5f5f5f;fill-opacity:1"
         id="flowRegion4658"><rect
           style="font-style:normal;font-variant:normal;font-weight:normal;font-stretch:normal;font-family:'Californian FB';-inkscape-font-specification:'Californian FB';text-align:center;text-anchor:middle;fill:#5f5f5f;fill-opacity:1"
           y="173.94826"
           x="142.85715"
           height="63.57143"
           width="257.14285"
           id="rect4656" /></flowRegion><flowPara
         id="flowPara4660">End Turn?</flowPara></flowRoot>    <rect
       style="opacity:1;fill:#caa353;fill-opacity:1;stroke:none;stroke-width:30.07907677;stroke-miterlimit:4;stroke-dasharray:none"
       id="rect4664"
       width="92.207985"
       height="75.904541"
       x="294.0914"
       y="-132.31195"
       ry="2.8319724" />
    <path
       style="opacity:1;fill:#ffffff;fill-opacity:0.18579239;stroke:none;stroke-width:28.78544807;stroke-miterlimit:4;stroke-dasharray:none"
       d="m 297.87467,-129.79597 5.47523,-0.59429 5.4086,0.16857 5.40861,0.16857 5.40861,0.16857 15.63075,-0.16857 15.63075,0.91027 15.63075,-1.24741 c 4.04208,1.07916 13.76522,-1.38492 17.0822,0.5664 0.28198,0.16948 0.53562,0.41624 0.74849,0.72181 0.21286,0.30557 0.38495,0.66995 0.50383,1.07468 0.44739,5.76998 -0.65246,11.65137 -0.81949,17.59095 l -0.47107,16.751013 0.47107,15.941879 0.20459,16.323312 c 0.006,0.46686 -0.0519,0.910702 -0.17419,1.314426 -0.12232,0.403724 -0.30129,0.76699 -0.51416,1.07168 -0.21287,0.304689 -0.4665,0.551013 -0.74848,0.721162 -0.28198,0.17015 -0.59231,0.263262 -0.91851,0.264128 l -34.15118,0.09057 -20.56829,-0.876562 -21.13357,0.202284 -7.70483,0.01156 c -0.32621,4.9e-4 -0.63647,-0.08577 -0.91846,-0.257971 -0.28199,-0.172203 -0.53566,-0.42263 -0.74852,-0.727319 -0.21287,-0.304695 -0.38495,-0.667753 -0.50382,-1.071373 -0.11887,-0.403618 -0.14104,-0.852656 -0.18453,-1.314738 l -0.56863,-6.041541 -0.14132,-6.367116 0.51818,-26.325784 -0.20794,-25.69777 c -0.004,-0.4669 0.0698,-0.91108 0.18764,-1.31471 0.11783,-0.40363 0.28784,-0.7667 0.5007,-1.07139 0.21287,-0.30469 0.46659,-0.5561 0.7486,-0.72879 0.28202,-0.17269 0.59319,-0.2212 0.91839,-0.2565 z"
       id="path4666"
       inkscape:connector-curvature="0"
       sodipodi:nodetypes="sccccccccsccccssssscccssssscccsssss" />
    <path
       sodipodi:nodetypes="sccccccccsccccssssscccssssscccsssss"
       inkscape:connector-curvature="0"
       id="path4668"
       d="m 302.26443,-125.16498 4.94802,-0.5223 4.88781,0.14814 4.88782,0.14814 4.88782,0.14815 14.12568,-0.14815 14.12569,0.80001 14.12568,-1.09631 c 3.65288,0.94844 12.43978,-1.21714 15.43736,0.49779 0.25484,0.14895 0.48406,0.36582 0.67643,0.63437 0.19237,0.26856 0.34789,0.58879 0.45531,0.94449 0.40432,5.07099 -0.58963,10.2399 -0.74058,15.45995 l -0.4257,14.721772 0.4257,14.010653 0.1849,14.345878 c 0.005,0.410305 -0.0468,0.800378 -0.15742,1.155194 -0.11054,0.354815 -0.27228,0.674075 -0.46465,0.941857 -0.19238,0.267778 -0.42159,0.48426 -0.67641,0.633799 -0.25484,0.149541 -0.53528,0.231374 -0.83007,0.232132 l -30.8628,0.07961 -18.58779,-0.770375 -19.09864,0.177785 -6.96294,0.01014 c -0.2948,4.3e-4 -0.57519,-0.0754 -0.83003,-0.226722 -0.25484,-0.151347 -0.48408,-0.371434 -0.67644,-0.639209 -0.19237,-0.267782 -0.34789,-0.586856 -0.45531,-0.941581 -0.10743,-0.354724 -0.12746,-0.749365 -0.16676,-1.155469 l -0.51387,-5.309602 -0.12771,-5.595794 0.46828,-23.13663 -0.18792,-22.584698 c -0.003,-0.41035 0.0631,-0.80071 0.16957,-1.15544 0.10649,-0.35474 0.26013,-0.67383 0.45249,-0.94161 0.19237,-0.26778 0.42166,-0.48873 0.67652,-0.6405 0.25486,-0.15177 0.53607,-0.19442 0.82996,-0.22544 z"
       style="opacity:1;fill:#ffffff;fill-opacity:0.79234978;stroke:none;stroke-width:25.65353775;stroke-miterlimit:4;stroke-dasharray:none" />
    <flowRoot
       xml:space="preserve"
       id="flowRoot4676"
       style="font-style:normal;font-variant:normal;font-weight:normal;font-stretch:normal;font-size:40px;line-height:1.25;font-family:'Californian FB';-inkscape-font-specification:'Californian FB';text-align:center;letter-spacing:0px;word-spacing:0px;text-anchor:middle;fill:#5f5f5f;fill-opacity:1;stroke:none"
       transform="matrix(0.26458333,0,0,0.26458333,268.99491,-164.69056)"><flowRegion
         id="flowRegion4672"
         style="font-style:normal;font-variant:normal;font-weight:normal;font-stretch:normal;font-family:'Californian FB';-inkscape-font-specification:'Californian FB';text-align:center;text-anchor:middle;fill:#5f5f5f;fill-opacity:1"><rect
           id="rect4670"
           width="254.28571"
           height="213.57143"
           x="142.85715"
           y="173.94826"
           style="font-style:normal;font-variant:normal;font-weight:normal;font-stretch:normal;font-family:'Californian FB';-inkscape-font-specification:'Californian FB';text-align:center;text-anchor:middle;fill:#5f5f5f;fill-opacity:1" /></flowRegion><flowPara
         id="flowPara4674">You have 30 seconds to commit your actions </flowPara></flowRoot>    <rect
       style="opacity:1;fill:#cfd8dc;fill-opacity:0.78431373;stroke:none;stroke-width:23.23271561;stroke-miterlimit:4;stroke-dasharray:none"
       id="rect4678"
       width="211.66667"
       height="105.83334"
       x="-554.65765"
       y="-113.28558"
       ry="0" />
    <rect
       style="opacity:1;fill:#9ea7aa;fill-opacity:0.78431373;stroke:none;stroke-width:15.57974625;stroke-miterlimit:4;stroke-dasharray:none"
       id="rect4680"
       width="211.66667"
       height="25.390598"
       x="-554.65765"
       y="-138.67618"
       ry="0" />
    <rect
       ry="0"
       y="-172.31606"
       x="-20.199303"
       height="25.390598"
       width="200"
       id="rect4682"
       style="opacity:1;fill:#37474f;fill-opacity:1;stroke:none;stroke-width:15.1442976;stroke-miterlimit:4;stroke-dasharray:none" />
  </g>
</svg>
